<svg width="24" height="24" viewBox="0 0 24 24" fill="none" xmlns="http://www.w3.org/2000/svg">
<path d="M22.0015 7.5499C22.0015 8.2099 21.4615 8.7499 20.8015 8.7499H3.20146C2.54146 8.7499 2.00146 8.2099 2.00146 7.5499V7.5399C2.00146 5.2499 3.85146 3.3999 6.14146 3.3999H17.8515C20.1415 3.3999 22.0015 5.2599 22.0015 7.5499Z" fill="#FEFEFE"/>
<path d="M2.00146 11.45V16.46C2.00146 18.75 3.85146 20.6 6.14146 20.6H17.8515C20.1415 20.6 22.0015 18.74 22.0015 16.45V11.45C22.0015 10.79 21.4615 10.25 20.8015 10.25H3.20146C2.54146 10.25 2.00146 10.79 2.00146 11.45ZM8.00146 17.25H6.00146C5.59146 17.25 5.25146 16.91 5.25146 16.5C5.25146 16.09 5.59146 15.75 6.00146 15.75H8.00146C8.41146 15.75 8.75146 16.09 8.75146 16.5C8.75146 16.91 8.41146 17.25 8.00146 17.25ZM14.5015 17.25H10.5015C10.0915 17.25 9.75146 16.91 9.75146 16.5C9.75146 16.09 10.0915 15.75 10.5015 15.75H14.5015C14.9115 15.75 15.2515 16.09 15.2515 16.5C15.2515 16.91 14.9115 17.25 14.5015 17.25Z" fill="#FEFEFE"/>
</svg>
