<svg width="20" height="20" viewBox="0 0 20 20" fill="none" xmlns="http://www.w3.org/2000/svg">
<g clip-path="url(#clip0_410_1705)">
<path d="M8.33301 7.50004C8.33301 7.0109 8.51545 6.69807 8.75497 6.49484C9.0126 6.27624 9.38581 6.14587 9.79134 6.14587C10.1969 6.14587 10.5701 6.27624 10.8277 6.49484C11.0672 6.69807 11.2497 7.0109 11.2497 7.50004C11.2497 7.86435 11.1638 8.0666 11.0641 8.21618C10.9478 8.39069 10.7947 8.5283 10.5358 8.76102L10.4839 8.80771C10.2175 9.04741 9.86715 9.37146 9.59998 9.84345C9.32465 10.3299 9.16634 10.9176 9.16634 11.6667C9.16634 12.1269 9.53944 12.5 9.99967 12.5C10.4599 12.5 10.833 12.1269 10.833 11.6667C10.833 11.1658 10.9351 10.8681 11.0504 10.6644C11.1739 10.4463 11.3443 10.2756 11.5988 10.0465C11.6217 10.0259 11.6459 10.0044 11.6711 9.98194C11.8988 9.77896 12.2107 9.50091 12.4509 9.14068C12.7418 8.70432 12.9163 8.1774 12.9163 7.50004C12.9163 6.53085 12.5259 5.74993 11.906 5.22399C11.3043 4.71342 10.5316 4.47921 9.79134 4.47921C9.05104 4.47921 8.27841 4.71342 7.67667 5.22399C7.05682 5.74993 6.66634 6.53085 6.66634 7.50004C6.66634 7.96028 7.03944 8.33337 7.49967 8.33337C7.95991 8.33337 8.33301 7.96028 8.33301 7.50004Z" fill="#FEFEFE"/>
<path d="M10.6246 15.5598C10.9342 15.2192 10.9091 14.6922 10.5686 14.3826C10.228 14.073 9.701 14.0981 9.39141 14.4386L9.38307 14.4478C9.07347 14.7883 9.09856 15.3154 9.4391 15.625C9.77964 15.9346 10.3067 15.9095 10.6163 15.569L10.6246 15.5598Z" fill="#FEFEFE"/>
<path fill-rule="evenodd" clip-rule="evenodd" d="M9.99967 0.833374C4.93694 0.833374 0.833008 4.9373 0.833008 10C0.833008 15.0628 4.93694 19.1667 9.99967 19.1667C15.0624 19.1667 19.1663 15.0628 19.1663 10C19.1663 4.9373 15.0624 0.833374 9.99967 0.833374ZM2.49967 10C2.49967 5.85778 5.85741 2.50004 9.99967 2.50004C14.1419 2.50004 17.4997 5.85778 17.4997 10C17.4997 14.1423 14.1419 17.5 9.99967 17.5C5.85741 17.5 2.49967 14.1423 2.49967 10Z" fill="#FEFEFE"/>
</g>
<defs>
<clipPath id="clip0_410_1705">
<rect width="20" height="20" fill="white"/>
</clipPath>
</defs>
</svg>
