<svg width="20" height="20" viewBox="0 0 20 20" fill="none" xmlns="http://www.w3.org/2000/svg">
<path d="M5.83301 1.66663C5.16997 1.66663 4.53408 1.93002 4.06524 2.39886C3.5964 2.8677 3.33301 3.50358 3.33301 4.16663V15.8333C3.33301 16.4963 3.5964 17.1322 4.06524 17.6011C4.53408 18.0699 5.16997 18.3333 5.83301 18.3333H14.1663C14.8294 18.3333 15.4653 18.0699 15.9341 17.6011C16.4029 17.1322 16.6663 16.4963 16.6663 15.8333V15C16.6663 14.5397 16.2932 14.1666 15.833 14.1666C15.3728 14.1666 14.9997 14.5397 14.9997 15V15.8333C14.9997 16.0543 14.9119 16.2663 14.7556 16.4225C14.5993 16.5788 14.3874 16.6666 14.1663 16.6666H5.83301C5.61199 16.6666 5.40003 16.5788 5.24375 16.4225C5.08747 16.2663 4.99967 16.0543 4.99967 15.8333V4.16663C4.99967 3.94561 5.08747 3.73365 5.24375 3.57737C5.40003 3.42109 5.61199 3.33329 5.83301 3.33329H14.1663C14.3874 3.33329 14.5993 3.42109 14.7556 3.57737C14.9119 3.73365 14.9997 3.94561 14.9997 4.16663V4.99996C14.9997 5.4602 15.3728 5.83329 15.833 5.83329C16.2932 5.83329 16.6663 5.4602 16.6663 4.99996V4.16663C16.6663 3.50358 16.4029 2.8677 15.9341 2.39886C15.4653 1.93002 14.8294 1.66663 14.1663 1.66663H5.83301Z" fill="white"/>
<path d="M13.9223 6.9107C13.5968 6.58527 13.0692 6.58527 12.7438 6.9107C12.4183 7.23614 12.4183 7.76378 12.7438 8.08921L13.8212 9.16663H9.99967C9.53944 9.16663 9.16634 9.53972 9.16634 9.99996C9.16634 10.4602 9.53944 10.8333 9.99967 10.8333H13.8212L12.7438 11.9107C12.4183 12.2361 12.4183 12.7638 12.7438 13.0892C13.0692 13.4147 13.5968 13.4147 13.9223 13.0892L16.4223 10.5892C16.7477 10.2638 16.7477 9.73614 16.4223 9.4107L13.9223 6.9107Z" fill="white"/>
</svg>
