<svg width="24" height="24" viewBox="0 0 24 24" fill="none" xmlns="http://www.w3.org/2000/svg">
<path d="M10.2515 10.03C10.2515 10.57 10.4015 10.65 10.7415 10.77L11.2515 10.95V9.25H10.9515C10.5715 9.25 10.2515 9.6 10.2515 10.03Z" fill="#FEFEFE"/>
<path d="M12.7515 14.75H13.0515C13.4415 14.75 13.7515 14.4 13.7515 13.97C13.7515 13.43 13.6015 13.35 13.2615 13.23L12.7515 13.05V14.75Z" fill="#FEFEFE"/>
<path d="M19.5815 5.48L17.5315 7.53C17.3815 7.68 17.1915 7.75 17.0015 7.75C16.8115 7.75 16.6215 7.68 16.4715 7.53C16.1815 7.24 16.1815 6.76 16.4715 6.47L18.5215 4.42C16.7615 2.92 14.4915 2 12.0015 2C6.48146 2 2.00146 6.48 2.00146 12C2.00146 17.52 6.48146 22 12.0015 22C17.5215 22 22.0015 17.52 22.0015 12C22.0015 9.51 21.0815 7.24 19.5815 5.48ZM13.7515 11.82C14.3915 12.05 15.2515 12.51 15.2515 13.98C15.2515 15.23 14.2615 16.26 13.0515 16.26H12.7515V16.51C12.7515 16.92 12.4115 17.26 12.0015 17.26C11.5915 17.26 11.2515 16.92 11.2515 16.51V16.26H11.1715C9.84146 16.26 8.75146 15.14 8.75146 13.76C8.75146 13.34 9.09146 13 9.50146 13C9.91146 13 10.2515 13.34 10.2515 13.75C10.2515 14.3 10.6615 14.75 11.1715 14.75H11.2515V12.53L10.2515 12.18C9.61146 11.95 8.75146 11.49 8.75146 10.02C8.75146 8.77 9.74146 7.74 10.9515 7.74H11.2515V7.5C11.2515 7.09 11.5915 6.75 12.0015 6.75C12.4115 6.75 12.7515 7.09 12.7515 7.5V7.75H12.8315C14.1615 7.75 15.2515 8.87 15.2515 10.25C15.2515 10.66 14.9115 11 14.5015 11C14.0915 11 13.7515 10.66 13.7515 10.25C13.7515 9.7 13.3415 9.25 12.8315 9.25H12.7515V11.47L13.7515 11.82Z" fill="#FEFEFE"/>
<path d="M22.6915 1.71C22.6115 1.53 22.4715 1.38 22.2815 1.3C22.1915 1.27 22.1015 1.25 22.0015 1.25H18.0015C17.5915 1.25 17.2515 1.59 17.2515 2C17.2515 2.41 17.5915 2.75 18.0015 2.75H20.1915L18.5215 4.42C18.9015 4.75 19.2515 5.1 19.5815 5.48L21.2515 3.81V6C21.2515 6.41 21.5915 6.75 22.0015 6.75C22.4115 6.75 22.7515 6.41 22.7515 6V2C22.7515 1.9 22.7315 1.81 22.6915 1.71Z" fill="#FEFEFE"/>
</svg>
