<svg width="20" height="21" viewBox="0 0 20 21" fill="none" xmlns="http://www.w3.org/2000/svg">
<path fill-rule="evenodd" clip-rule="evenodd" d="M10.0007 7.00142C9.1166 7.00142 8.26875 7.35261 7.64363 7.97773C7.01851 8.60286 6.66732 9.4507 6.66732 10.3348C6.66732 11.2188 7.01851 12.0667 7.64363 12.6918C8.26875 13.3169 9.1166 13.6681 10.0007 13.6681C10.8847 13.6681 11.7326 13.3169 12.3577 12.6918C12.9828 12.0667 13.334 11.2188 13.334 10.3348C13.334 9.4507 12.9828 8.60286 12.3577 7.97773C11.7326 7.35261 10.8847 7.00142 10.0007 7.00142ZM8.82214 9.15624C9.1347 8.84368 9.55862 8.66809 10.0007 8.66809C10.4427 8.66809 10.8666 8.84368 11.1792 9.15624C11.4917 9.46881 11.6673 9.89273 11.6673 10.3348C11.6673 10.7768 11.4917 11.2007 11.1792 11.5133C10.8666 11.8258 10.4427 12.0014 10.0007 12.0014C9.55862 12.0014 9.1347 11.8258 8.82214 11.5133C8.50958 11.2007 8.33398 10.7768 8.33398 10.3348C8.33398 9.89273 8.50958 9.46881 8.82214 9.15624Z" fill="#FEFEFE"/>
<path fill-rule="evenodd" clip-rule="evenodd" d="M9.15148 1.16809C8.77294 1.16809 8.44196 1.42323 8.3456 1.7893L7.9233 3.39363L6.5816 3.95922L5.55456 3.04549C5.2248 2.75212 4.72349 2.76674 4.4114 3.07883L2.74473 4.7455C2.44281 5.04742 2.41794 5.52869 2.68712 5.86013L3.58723 6.96838L3.03527 8.32632L1.47786 8.68991C1.10075 8.77795 0.833984 9.11417 0.833984 9.50142V11.1681C0.833984 11.5439 1.08547 11.8731 1.448 11.972L3.05773 12.4112L3.62485 13.7565L2.71203 14.7801C2.41802 15.1098 2.43237 15.6117 2.74473 15.924L4.4114 17.5907C4.71372 17.893 5.1958 17.9175 5.52719 17.6473L6.63506 16.7442L7.95961 17.2891L8.35935 18.8721C8.45278 19.2422 8.78566 19.5014 9.16732 19.5014H10.834C11.2155 19.5014 11.5483 19.2424 11.6419 18.8725L12.0426 17.2888L13.4115 16.7218C13.5492 16.8373 13.7072 16.973 13.8645 17.1099C14.0207 17.2459 14.1659 17.3741 14.2721 17.4684C14.3252 17.5155 14.3684 17.554 14.3983 17.5807L14.4435 17.6212C14.7731 17.9168 15.2769 17.9037 15.5899 17.5907L17.2566 15.924C17.5633 15.6173 17.5834 15.1266 17.3029 14.7958L16.3951 13.7253L16.9569 12.3686L18.5436 11.9563C18.9109 11.8609 19.1673 11.5293 19.1673 11.1498V9.50142C19.1673 9.12032 18.9088 8.78778 18.5395 8.69382L16.9625 8.29263L16.4023 6.9392L17.3037 5.87272C17.5834 5.54184 17.5629 5.05185 17.2566 4.7455L15.5899 3.07883C15.2823 2.77124 14.7899 2.75199 14.4592 3.03463L13.4006 3.93949L11.9995 3.36342L11.5858 1.78956C11.4895 1.42336 11.1585 1.16809 10.7798 1.16809H9.15148ZM15.5353 15.2883L14.9652 15.8584L14.9589 15.8529C14.6512 15.585 14.2547 15.2459 14.0311 15.086C13.7971 14.9187 13.4934 14.8839 13.2276 14.994L11.0184 15.909C10.7753 16.0097 10.594 16.2194 10.5294 16.4745L10.1853 17.8348H9.81638L9.47279 16.4741C9.40815 16.2181 9.22602 16.0079 8.98184 15.9074L6.81017 15.0141C6.52739 14.8978 6.20361 14.9456 5.96661 15.1388L5.0576 15.8799L4.47975 15.302L5.21927 14.4727C5.43336 14.2326 5.49016 13.8908 5.36521 13.5944L4.43604 11.3902C4.33663 11.1544 4.13437 10.9773 3.88747 10.91L2.50065 10.5316V10.1626L3.83427 9.85127C4.09773 9.78976 4.31494 9.60418 4.41681 9.35355L5.31681 7.13939C5.43128 6.85778 5.38332 6.53618 5.19168 6.30022L4.45458 5.39267L5.03405 4.8132L5.86674 5.55402C6.1068 5.7676 6.44827 5.82413 6.74436 5.69932L8.94852 4.77015C9.18676 4.66972 9.36489 4.46441 9.4307 4.21438L9.79385 2.83476H10.1372L10.493 4.18828C10.5594 4.44093 10.7405 4.64782 10.9821 4.74715L13.2379 5.67465C13.5271 5.79356 13.8586 5.74056 14.0963 5.53738L14.9563 4.80226L15.5361 5.3821L14.8017 6.25097C14.6005 6.48907 14.5489 6.8196 14.6682 7.10766L15.5823 9.31599C15.6829 9.55886 15.8921 9.74005 16.1468 9.80486L17.5006 10.1493V10.5053L16.1361 10.8599C15.8831 10.9256 15.6757 11.1062 15.5757 11.3476L14.6607 13.5576C14.5412 13.8462 14.5931 14.1772 14.7951 14.4154L15.5353 15.2883Z" fill="#FEFEFE"/>
</svg>
