<svg width="24" height="24" viewBox="0 0 24 24" fill="none" xmlns="http://www.w3.org/2000/svg">
<path d="M11.9415 2.21008L9.53148 7.82008H7.12148C6.72148 7.82008 6.33148 7.85007 5.95148 7.93007L6.95148 5.53008L6.99148 5.44008L7.05148 5.28008C7.08148 5.21008 7.10148 5.15007 7.13148 5.10008C8.29148 2.41007 9.59148 1.57008 11.9415 2.21008Z" fill="#FEFEFE"/>
<path d="M18.7315 8.09002L18.7115 8.08002C18.1115 7.91002 17.5015 7.82002 16.8815 7.82002H10.6215L12.8715 2.59002L12.9015 2.52002C13.0415 2.57002 13.1915 2.64002 13.3415 2.69002L15.5515 3.62002C16.7815 4.13002 17.6415 4.66002 18.1715 5.30002C18.2615 5.42002 18.3415 5.53002 18.4215 5.66002C18.5115 5.80002 18.5815 5.94002 18.6215 6.09002C18.6615 6.18002 18.6915 6.26002 18.7115 6.35002C18.8615 6.86002 18.8715 7.44002 18.7315 8.09002Z" fill="#FEFEFE"/>
<path d="M18.2915 9.52007C17.8415 9.39007 17.3715 9.32007 16.8815 9.32007H7.12146C6.44146 9.32007 5.80146 9.45007 5.20145 9.71007C3.46145 10.4601 2.24146 12.1901 2.24146 14.2001V16.1501C2.24146 16.3901 2.26146 16.6201 2.29146 16.8601C2.51146 20.0401 4.21145 21.7401 7.39145 21.9501C7.62145 21.9801 7.85146 22.0001 8.10146 22.0001H15.9015C19.6015 22.0001 21.5515 20.2401 21.7415 16.7401C21.7515 16.5501 21.7615 16.3501 21.7615 16.1501V14.2001C21.7615 11.9901 20.2915 10.1301 18.2915 9.52007ZM14.5015 16.7501H9.50146C9.09146 16.7501 8.75146 16.4101 8.75146 16.0001C8.75146 15.5901 9.09146 15.2501 9.50146 15.2501H14.5015C14.9115 15.2501 15.2515 15.5901 15.2515 16.0001C15.2515 16.4101 14.9115 16.7501 14.5015 16.7501Z" fill="#FEFEFE"/>
</svg>
